<svg width="37" height="49" viewBox="0 0 37 49" fill="none" xmlns="http://www.w3.org/2000/svg">
<path d="M32.375 16.0573H30.0625V11.4695C30.0625 5.13835 24.8825 0 18.5 0C12.1175 0 6.9375 5.13835 6.9375 11.4695V16.0573H4.625C2.08125 16.0573 0 18.1219 0 20.6452V43.5842C0 46.1075 2.08125 48.172 4.625 48.172H32.375C34.9188 48.172 37 46.1075 37 43.5842V20.6452C37 18.1219 34.9188 16.0573 32.375 16.0573ZM18.5 36.7025C15.9563 36.7025 13.875 34.638 13.875 32.1147C13.875 29.5914 15.9563 27.5269 18.5 27.5269C21.0438 27.5269 23.125 29.5914 23.125 32.1147C23.125 34.638 21.0438 36.7025 18.5 36.7025ZM11.5625 16.0573V11.4695C11.5625 7.66165 14.6613 4.58781 18.5 4.58781C22.3388 4.58781 25.4375 7.66165 25.4375 11.4695V16.0573H11.5625Z" fill="#456FB8"/>
</svg>
