<svg width="39" height="39" viewBox="0 0 39 39" fill="none" xmlns="http://www.w3.org/2000/svg">
<path d="M36.8333 21.6667H2.16667C0.975 21.6667 0 22.6417 0 23.8333V36.8333C0 38.025 0.975 39 2.16667 39H36.8333C38.025 39 39 38.025 39 36.8333V23.8333C39 22.6417 38.025 21.6667 36.8333 21.6667ZM8.66667 34.6667C6.28333 34.6667 4.33333 32.7167 4.33333 30.3333C4.33333 27.95 6.28333 26 8.66667 26C11.05 26 13 27.95 13 30.3333C13 32.7167 11.05 34.6667 8.66667 34.6667ZM36.8333 0H2.16667C0.975 0 0 0.975 0 2.16667V15.1667C0 16.3583 0.975 17.3333 2.16667 17.3333H36.8333C38.025 17.3333 39 16.3583 39 15.1667V2.16667C39 0.975 38.025 0 36.8333 0ZM8.66667 13C6.28333 13 4.33333 11.05 4.33333 8.66667C4.33333 6.28333 6.28333 4.33333 8.66667 4.33333C11.05 4.33333 13 6.28333 13 8.66667C13 11.05 11.05 13 8.66667 13Z" fill="#456FB8"/>
</svg>
