<svg width="47" height="47" viewBox="0 0 47 47" fill="none" xmlns="http://www.w3.org/2000/svg">
<path d="M23.5 0C10.528 0 0 10.528 0 23.5C0 36.472 10.528 47 23.5 47C36.472 47 47 36.472 47 23.5C47 10.528 36.472 0 23.5 0ZM21.15 42.1355C11.8675 40.984 4.7 33.088 4.7 23.5C4.7 22.043 4.888 20.6565 5.1935 19.2935L16.45 30.55V32.9C16.45 35.485 18.565 37.6 21.15 37.6V42.1355ZM37.365 36.1665C36.754 34.263 35.015 32.9 32.9 32.9H30.55V25.85C30.55 24.5575 29.4925 23.5 28.2 23.5H14.1V18.8H18.8C20.0925 18.8 21.15 17.7425 21.15 16.45V11.75H25.85C28.435 11.75 30.55 9.635 30.55 7.05V6.0865C37.4355 8.883 42.3 15.6275 42.3 23.5C42.3 28.388 40.42 32.8295 37.365 36.1665Z" fill="#456FB8"/>
</svg>
