<svg width="41" height="30" viewBox="0 0 41 30" fill="none" xmlns="http://www.w3.org/2000/svg">
<path d="M36.9 0H4.1C1.845 0 0.0205 1.68204 0.0205 3.73786L0 26.165C0 28.2209 1.845 29.9029 4.1 29.9029H36.9C39.155 29.9029 41 28.2209 41 26.165V3.73786C41 1.68204 39.155 0 36.9 0ZM36.08 7.94296L21.5865 16.2036C20.9305 16.5774 20.0695 16.5774 19.4135 16.2036L4.92 7.94296C4.4075 7.64393 4.1 7.13932 4.1 6.59733C4.1 5.34515 5.5965 4.59757 6.765 5.2517L20.5 13.0825L34.235 5.2517C35.4035 4.59757 36.9 5.34515 36.9 6.59733C36.9 7.13932 36.5925 7.64393 36.08 7.94296Z" fill="#456FB8"/>
</svg>
