<svg width="45" height="36" viewBox="0 0 45 36" fill="none" xmlns="http://www.w3.org/2000/svg">
<path d="M40.9091 0H4.09091C1.84091 0 0 1.8 0 4V28C0 30.2 1.84091 32 4.09091 32H14.3182V34C14.3182 35.1 15.2386 36 16.3636 36H28.6364C29.7614 36 30.6818 35.1 30.6818 34V32H40.9091C43.1591 32 45 30.2 45 28V4C45 1.8 43.1591 0 40.9091 0ZM38.8636 28H6.13636C5.01136 28 4.09091 27.1 4.09091 26V6C4.09091 4.9 5.01136 4 6.13636 4H38.8636C39.9886 4 40.9091 4.9 40.9091 6V26C40.9091 27.1 39.9886 28 38.8636 28ZM34.7727 10H16.3636C15.2386 10 14.3182 10.9 14.3182 12C14.3182 13.1 15.2386 14 16.3636 14H34.7727C35.8977 14 36.8182 13.1 36.8182 12C36.8182 10.9 35.8977 10 34.7727 10ZM34.7727 18H16.3636C15.2386 18 14.3182 18.9 14.3182 20C14.3182 21.1 15.2386 22 16.3636 22H34.7727C35.8977 22 36.8182 21.1 36.8182 20C36.8182 18.9 35.8977 18 34.7727 18ZM12.2727 10H8.18182V14H12.2727V10ZM12.2727 18H8.18182V22H12.2727V18Z" fill="#456FB8"/>
</svg>
